<svg width="104" height="26" viewBox="0 0 104 26" fill="none" xmlns="http://www.w3.org/2000/svg">
<path d="M101.533 23.8691C99.3457 24.6621 95.3809 25.127 90.8965 25.127C86.4121 25.127 82.6387 24.6348 80.4785 23.8691V15.2285H101.533V23.8691ZM38.7793 20.3418H50.4004V24.9902H26.6113V20.3418H33.3105V10.5801H38.7793V20.3418ZM76.6504 24.9902H52.8613V20.3418H76.6504V24.9902ZM23.3301 24.8535H17.8613V0.873047H23.3301V24.8535ZM10.6426 9.51367C10.6426 10.1426 10.6152 10.7715 10.5605 11.373C11.4902 15.3105 14.5254 18.6191 17.2051 19.5762L14.5801 24.0059C12.0098 22.9395 10.1504 21.0801 8.64648 18.2637C6.8418 21.5996 3.91602 23.8418 0.00585938 24.1152V18.8105C2.87695 18.1543 5.17383 15.4473 5.17383 10.1699V1.20117H10.6426V9.51367ZM85.9473 20.5605C86.3301 20.752 88.5996 20.9707 90.8965 20.9707C93.248 20.9707 95.6543 20.752 96.0645 20.5605V19.248H85.9473V20.5605ZM75.5566 11.2363H59.5605C59.4785 11.4277 59.4238 11.7012 59.4238 11.9199C59.4238 13.0684 60.1074 13.5059 65.3301 13.5059C69.4043 13.5059 73.0684 13.2598 75.6934 12.8223V17.0605C73.0137 17.5254 69.541 17.7441 64.9199 17.7441C57.0723 17.7441 53.9551 16.3496 53.9551 12.8223C53.9551 12.166 54.1465 11.5918 54.3379 11.2363H53.6816V7.54492H70.0879V5.6582H53.6816V1.41992H75.5566V11.2363ZM49.1973 7.27148C49.1973 9.92383 48.6777 14.4082 47.9395 16.6504L42.5254 16.2949C43.2363 13.916 43.7285 9.04883 43.7285 6.06836H27.5684V1.41992H49.1973V7.27148ZM101.533 4.86523H103.994V9.45898H101.533V14.1348H96.0645V0.873047H101.533V4.86523ZM86.1934 9.73242H87.5879L87.834 6.0957H93.0293L92.3184 9.73242H94.8066V13.998H78.7012V9.73242H81.1895L80.4785 6.0957H85.9473L86.1934 9.73242ZM94.5332 5.54883H78.9746V1.41992H94.5332V5.54883Z" fill="white"/>
</svg>
